<svg xmlns="http://www.w3.org/2000/svg" viewBox="0 0 512 512" enable-background="new 0 0 512 512"><style type="text/css">.st0{fill:#FBF7F2;} .st1{fill:#4CBA35;} .st2{fill:#7FABDA;} .st3{fill:#FFFFFF;} .st4{fill:#F8B563;} .st5{fill:#A4C9EB;} .st6{fill:#DBD6D2;}</style><path class="st0" d="M82.4 503.3h347.1v-503.3h-347.1v503.3z"/><path class="st1" d="M117.2 503.3h277.7v-468.6h-277.7v468.6z"/><path class="st2" d="M151.9 190.9h208.3v-121.5h-208.3v121.5z"/><path class="st3" d="M342.8 182.2c0 5.2 3.5 8.7 8.7 8.7s8.7-3.5 8.7-8.7-3.5-8.7-8.7-8.7-8.7 3.5-8.7 8.7zM290.7 182.2c0 5.2 3.5 8.7 8.7 8.7s8.7-3.5 8.7-8.7-3.5-8.7-8.7-8.7-8.7 3.5-8.7 8.7zM342.8 130.2c0 5.2 3.5 8.7 8.7 8.7s8.7-3.5 8.7-8.7-3.5-8.7-8.7-8.7c-5.2 0-8.7 3.5-8.7 8.7zM290.7 130.2c0 5.2 3.5 8.7 8.7 8.7s8.7-3.5 8.7-8.7-3.5-8.7-8.7-8.7-8.7 3.5-8.7 8.7zM316.7 156.2c0 5.2 3.5 8.7 8.7 8.7s8.7-3.5 8.7-8.7-3.5-8.7-8.7-8.7c-5.2 0-8.7 3.5-8.7 8.7zM264.7 156.2c0 5.2 3.5 8.7 8.7 8.7s8.7-3.5 8.7-8.7-3.5-8.7-8.7-8.7-8.7 3.5-8.7 8.7zM316.7 104.1c0 5.2 3.5 8.7 8.7 8.7s8.7-3.5 8.7-8.7-3.5-8.7-8.7-8.7-8.7 3.5-8.7 8.7zM264.7 104.1c0 5.2 3.5 8.7 8.7 8.7s8.7-3.5 8.7-8.7-3.5-8.7-8.7-8.7-8.7 3.5-8.7 8.7zM238.6 182.2c0 5.2 3.5 8.7 8.7 8.7s8.7-3.5 8.7-8.7-3.5-8.7-8.7-8.7-8.7 3.5-8.7 8.7zM186.6 182.2c0 5.2 3.5 8.7 8.7 8.7s8.7-3.5 8.7-8.7-3.5-8.7-8.7-8.7-8.7 3.5-8.7 8.7zM238.6 130.2c0 5.2 3.5 8.7 8.7 8.7s8.7-3.5 8.7-8.7-3.5-8.7-8.7-8.7-8.7 3.5-8.7 8.7zM186.6 130.2c0 5.2 3.5 8.7 8.7 8.7s8.7-3.5 8.7-8.7-3.5-8.7-8.7-8.7c-5.3 0-8.7 3.5-8.7 8.7zM212.6 156.2c0 5.2 3.5 8.7 8.7 8.7s8.7-3.5 8.7-8.7-3.5-8.7-8.7-8.7c-5.2 0-8.7 3.5-8.7 8.7zM160.5 156.2c0 5.2 3.5 8.7 8.7 8.7s8.7-3.5 8.7-8.7-3.5-8.7-8.7-8.7-8.7 3.5-8.7 8.7zM212.6 104.1c0 5.2 3.5 8.7 8.7 8.7s8.7-3.5 8.7-8.7-3.5-8.7-8.7-8.7-8.7 3.5-8.7 8.7zM160.5 104.1c0 5.2 3.5 8.7 8.7 8.7s8.7-3.5 8.7-8.7-3.5-8.7-8.7-8.7-8.7 3.5-8.7 8.7zM342.8 78.1c0 5.2 3.5 8.7 8.7 8.7s8.7-3.5 8.7-8.7-3.5-8.7-8.7-8.7c-5.2 0-8.7 3.5-8.7 8.7zM290.7 78.1c0 5.2 3.5 8.7 8.7 8.7s8.7-3.5 8.7-8.7-3.5-8.7-8.7-8.7-8.7 3.5-8.7 8.7zM238.6 78.1c0 5.2 3.5 8.7 8.7 8.7s8.7-3.5 8.7-8.7c0-5.2-3.5-8.7-8.7-8.7s-8.7 3.5-8.7 8.7zM186.6 78.1c0 5.2 3.5 8.7 8.7 8.7s8.7-3.5 8.7-8.7-3.5-8.7-8.7-8.7c-5.3 0-8.7 3.5-8.7 8.7z"/><path class="st0" d="M325.4 286.4h34.7v-34.7h-34.7v34.7z"/><path class="st4" d="M325.4 277.7h-26c-5.2 0-8.7-3.5-8.7-8.7s3.5-8.7 8.7-8.7h26c5.2 0 8.7 3.5 8.7 8.7 0 5.2-3.5 8.7-8.7 8.7"/><path class="st5" d="M203.9 78.1c0 5.2-3.5 8.7-8.7 8.7s-8.7-3.5-8.7-8.7 3.5-8.7 8.7-8.7c5.3 0 8.7 3.5 8.7 8.7M256 78.1c0 5.2-3.5 8.7-8.7 8.7s-8.7-3.5-8.7-8.7 3.5-8.7 8.7-8.7 8.7 3.5 8.7 8.7M308.1 78.1c0 5.2-3.5 8.7-8.7 8.7s-8.7-3.5-8.7-8.7 3.5-8.7 8.7-8.7 8.7 3.5 8.7 8.7M360.1 78.1c0 5.2-3.5 8.7-8.7 8.7s-8.7-3.5-8.7-8.7 3.5-8.7 8.7-8.7c5.3 0 8.7 3.5 8.7 8.7M177.9 104.1c0 5.2-3.5 8.7-8.7 8.7s-8.7-3.5-8.7-8.7 3.5-8.7 8.7-8.7 8.7 3.5 8.7 8.7M230 104.1c0 5.2-3.5 8.7-8.7 8.7s-8.7-3.5-8.7-8.7 3.5-8.7 8.7-8.7c5.2.1 8.7 3.5 8.7 8.7M177.9 156.2c0 5.2-3.5 8.7-8.7 8.7s-8.7-3.5-8.7-8.7 3.5-8.7 8.7-8.7 8.7 3.5 8.7 8.7M230 156.2c0 5.2-3.5 8.7-8.7 8.7s-8.7-3.5-8.7-8.7 3.5-8.7 8.7-8.7c5.2 0 8.7 3.5 8.7 8.7M203.9 130.2c0 5.2-3.5 8.7-8.7 8.7s-8.7-3.5-8.7-8.7 3.5-8.7 8.7-8.7c5.3 0 8.7 3.5 8.7 8.7M256 130.2c0 5.2-3.5 8.7-8.7 8.7s-8.7-3.5-8.7-8.7 3.5-8.7 8.7-8.7 8.7 3.5 8.7 8.7M203.9 182.2c0 5.2-3.5 8.7-8.7 8.7s-8.7-3.5-8.7-8.7 3.5-8.7 8.7-8.7c5.3.1 8.7 3.5 8.7 8.7M256 182.2c0 5.2-3.5 8.7-8.7 8.7s-8.7-3.5-8.7-8.7 3.5-8.7 8.7-8.7 8.7 3.5 8.7 8.7M282 104.1c0 5.2-3.5 8.7-8.7 8.7s-8.7-3.5-8.7-8.7 3.5-8.7 8.7-8.7 8.7 3.5 8.7 8.7M334.1 104.1c0 5.2-3.5 8.7-8.7 8.7s-8.7-3.5-8.7-8.7 3.5-8.7 8.7-8.7c5.2.1 8.7 3.5 8.7 8.7M282 156.2c0 5.2-3.5 8.7-8.7 8.7s-8.7-3.5-8.7-8.7 3.5-8.7 8.7-8.7 8.7 3.5 8.7 8.7M334.1 156.2c0 5.2-3.5 8.7-8.7 8.7s-8.7-3.5-8.7-8.7 3.5-8.7 8.7-8.7c5.2 0 8.7 3.5 8.7 8.7M308.1 130.2c0 5.2-3.5 8.7-8.7 8.7s-8.7-3.5-8.7-8.7 3.5-8.7 8.7-8.7 8.7 3.5 8.7 8.7M360.1 130.2c0 5.2-3.5 8.7-8.7 8.7s-8.7-3.5-8.7-8.7 3.5-8.7 8.7-8.7c5.3 0 8.7 3.5 8.7 8.7M308.1 182.2c0 5.2-3.5 8.7-8.7 8.7s-8.7-3.5-8.7-8.7 3.5-8.7 8.7-8.7 8.7 3.5 8.7 8.7M360.1 182.2c0 5.2-3.5 8.7-8.7 8.7s-8.7-3.5-8.7-8.7 3.5-8.7 8.7-8.7c5.3.1 8.7 3.5 8.7 8.7"/><path class="st6" d="M490.3 512h-468.6c-5.2 0-8.7-3.5-8.7-8.7s3.5-8.7 8.7-8.7h468.6c5.2 0 8.7 3.5 8.7 8.7s-3.5 8.7-8.7 8.7"/></svg>