<svg xmlns="http://www.w3.org/2000/svg" viewBox="0 0 84.36 46.51"><defs><style>.cls-1{fill:#fff;}</style></defs><title>icon_white</title><path class="cls-1" d="M20.62 20.14a2.33 2.33 0 0 0-.14-1.78 2.76 2.76 0 0 0-3.48-.88l-15 5.59c-1.32.43-1.58.93-1.58.93a2.89 2.89 0 0 0-.42 1.66 2.9 2.9 0 0 0 .41 1.7s.26.46 1.56.89l15 5.59a2.76 2.76 0 0 0 3.51-.84 2.33 2.33 0 0 0 .14-1.78 2.66 2.66 0 0 0-1.55-1.48l-10.75-4 10.75-4a2.65 2.65 0 0 0 1.55-1.6zm63.33 3.86s-.26-.46-1.56-.89l-15-5.59a2.76 2.76 0 0 0-3.52.88 2.33 2.33 0 0 0-.14 1.78 2.65 2.65 0 0 0 1.55 1.48l10.75 4-10.75 4a2.65 2.65 0 0 0-1.55 1.48 2.33 2.33 0 0 0 .15 1.86 2.76 2.76 0 0 0 3.52.88l15-5.59c1.3-.43 1.56-.89 1.56-.89a2.9 2.9 0 0 0 .41-1.7 2.9 2.9 0 0 0-.42-1.7zM38.25 27.58v11.42l2.09 6.27 3.44 1.26-.95-8.53 4.93-7.68 3.11-.35 3.44-7.83-6.58-2.81h-.06l-.81-2.4-6-4.29-4.36-.11-1.12.9-2.1-1.59v-1.62l-1.28-.71.64-2-1.3-.61-2.1 1.04-2-1.74 1.16-2.5-8.87-3.7h-.26l4.45 8.21a1 1 0 0 0 .47.39l6.28 2.84 4.08 4.34-2.21 5.35 2.81 5.33z"/></svg>