<svg xmlns="http://www.w3.org/2000/svg" viewBox="0 0 200 27.75"><defs><style>.cls-1{fill:#3fbc20;}.cls-2{fill:#535353;}</style></defs><title>logo</title><path class="cls-1" d="M12.3 12a1.39 1.39 0 0 0-.08-1 1.65 1.65 0 0 0-2.1-.53l-8.94 3.29c-.78.26-.93.53-.93.53a1.73 1.73 0 0 0-.25 1 1.73 1.73 0 0 0 .25 1s.15.27.93.53l8.94 3.34a1.65 1.65 0 0 0 2.1-.53 1.39 1.39 0 0 0 .08-1.06 1.58 1.58 0 0 0-.92-.88l-6.38-2.38 6.41-2.41a1.58 1.58 0 0 0 .89-.9zm37.78 2.3s-.15-.27-.93-.53l-8.94-3.34a1.65 1.65 0 0 0-2.1.53 1.39 1.39 0 0 0-.11 1.04 1.58 1.58 0 0 0 .92.88l6.41 2.41-6.33 2.45a1.58 1.58 0 0 0-.92.88 1.39 1.39 0 0 0 .08 1.06 1.65 1.65 0 0 0 2.1.53l8.94-3.34c.78-.26.93-.53.93-.53a1.73 1.73 0 0 0 .25-1 1.73 1.73 0 0 0-.3-1.03z"/><path class="cls-2" d="M22.82 16.46v6.8l1.25 3.74 2.05.75-.56-5.1 2.94-4.58 1.85-.21 2.05-4.67-3.93-1.68-.47-1.45-3.64-2.56-2.6-.07-.67.57-1.25-1v-1l-.73-.38.38-1.22-.78-.36-1.24.64-1.19-1 .72-1.47-5.35-2.21h-.15l2.65 4.9a.61.61 0 0 0 .28.23l3.75 1.69 2.44 2.59-1.32 3.19 1.7 3.18zM54.3 18.39h6.7a1.12 1.12 0 0 0 .44-.16l1.83-1.82a.45.45 0 0 0 .15-.28v-4.22a1.18 1.18 0 0 0-.23-.58l-1.81-1.85h-7.38s-.24 0-.24.19v8.33a.45.45 0 0 0 .54.39zm.58-7.94h6.06l1.28 1.29a.66.66 0 0 1 .15.44v3.7l-1.51 1.51h-6v-6.22zm68.31 7.79a.35.35 0 0 0 .29.13h5.71a.35.35 0 0 0 .29-.13l1.85-1.83a.68.68 0 0 0 .15-.29v-4.51a.26.26 0 0 0-.06-.18l-2-2a.57.57 0 0 0-.35-.11h-5.45a.57.57 0 0 0-.35.11l-2 2a.26.26 0 0 0-.06.18v4.51a.68.68 0 0 0 .15.29zm-.91-6.36l1.56-1.53h5l1.56 1.53v4.12l-1.4 1.4h-5.27l-1.45-1.4zm-42.37 6.43a.33.33 0 0 0 .23.08h4.86a.63.63 0 0 0 .48-.17l1.1-1.36c.28-.36 0-.53 0-.53l-6.28-5.25.47-.69h4.08l.76.84a.23.23 0 0 0 .32.08l.47-.48c.18-.18-.1-.44-.1-.44l-.25-.25-.65-.63a.44.44 0 0 0-.33-.1h-4.52c-.17 0-.45.19-.45.19l-.3.36-.86 1.04a.37.37 0 0 0 0 .44l6.3 5.17a.24.24 0 0 1 .09.24l-.45.55h-4.42l-.1-.1-.85-.78c-.12-.09-.26.08-.26.08l-.43.47a.23.23 0 0 0 0 .25zm23.28.07h.24s.42 0 .42-.25v-3.69h5.32s.2 0 .2-.19v-.71s0-.19-.19-.19h-5.33v-2.9h5l.44.44.17.18s.16.13.29 0l.53-.54a.14.14 0 0 0 0-.2l-.94-.88h-6.34s-.22 0-.22.21v8.47s.02.25.41.25zm14.61-.25v-.53a.32.32 0 0 0-.31-.2h-1.49v-6.95h1.62s.21-.07.21-.21v-.68a.29.29 0 0 0-.22-.1h-4.29a.28.28 0 0 0-.22.1v.69c0 .14.21.21.21.21h1.62v6.94h-1.53a.32.32 0 0 0-.3.2v.53c0 .17.29.25.29.25h4.16s.25-.08.25-.26zm-43.6.25a.6.6 0 0 0 .45-.15l.84-.81c.27-.26.07-.41.07-.41l-.43-.41a.22.22 0 0 0-.35 0l-.78.8h-5.38v-3.06h5.28a.37.37 0 0 0 .34-.24v-.49a.49.49 0 0 0-.31-.26h-5.3v-2.9h5.32l.74.75c.21.2.33.08.33.08l.56-.58c.06-.14-.15-.3-.15-.3l-.85-.83c-.1-.12-.19-.1-.19-.1h-6.5c-.32 0-.35.22-.35.22v8.31c0 .31.41.32.41.32zm22-8.82a.6.6 0 0 0-.37-.18h-2.9a.6.6 0 0 0-.37.18l-2.35 2.44a.3.3 0 0 0-.11.21v5.79a.36.36 0 0 0 .39.36h.37c.27 0 .33-.35.33-.35v-2.58h6.35v2.57s.06.35.33.35h.37a.36.36 0 0 0 .39-.36v-5.81a.3.3 0 0 0-.11-.21zm1.37 5.06h-6.35v-2.29l1.92-2h2.5l1.92 2zM144.27 15.87l-.09-.09s-.18-.17-.44.06l-1 .89h-3.64v-7.24s-.17-.42-.53-.42h-1.47s-.45.14-.45.37v9.08a.48.48 0 0 0 .52.55h6.42a.9.9 0 0 0 .47-.12l1.41-1.34.07-.08s.19-.19-.06-.45zm36.68-6.52a1.31 1.31 0 0 0-.77-.36h-3.38a1.31 1.31 0 0 0-.77.36l-2.44 2.45a.86.86 0 0 0-.21.46v6.53c0 .2.29.28.29.28h1.92c.22 0 .28-.29.28-.29v-2.13h5.25v2.12s.05.29.28.29h1.92s.29-.08.29-.28v-6.52a.86.86 0 0 0-.21-.46zm.17 5.21h-5.25v-1.66l1.61-1.63h2l1.61 1.63zm18.76-4.56l-1.3-1.22a.19.19 0 0 0-.29 0l-4.66 4.89-4.63-4.93a.19.19 0 0 0-.29 0l-1.32 1.26a.42.42 0 0 0-.12.27v8.48a.33.33 0 0 0 .28.36h1.78a.35.35 0 0 0 .36-.36v-5.86l3.76 4.06a.15.15 0 0 0 .13.08h.11a.15.15 0 0 0 .13-.08l3.76-4.06v5.81a.35.35 0 0 0 .36.36h1.78a.33.33 0 0 0 .28-.36v-8.47a.42.42 0 0 0-.12-.23zm-29.21-.6a.65.65 0 0 0-.47-.21h-8.62a.65.65 0 0 0-.47.21l-1.11 1.07c-.22.22-.06.38-.06.38l.08.08 1.39 1.45a.29.29 0 0 0 .42 0l.82-.86h2v7.29c0 .2.25.29.25.29h2s.25-.09.25-.29v-7.33h2l.81.86a.29.29 0 0 0 .42 0l1.39-1.45.08-.08s.16-.16-.06-.38zm-14.94-.05a1.31 1.31 0 0 0-.73-.35h-3.37a1.31 1.31 0 0 0-.77.36l-2.44 2.45a.86.86 0 0 0-.21.46v6.53c0 .2.29.28.29.28h1.92c.22 0 .28-.29.28-.29v-2.14h5.25v2.12s.05.29.28.29h1.92s.29-.08.29-.28v-6.52a.86.86 0 0 0-.21-.46zm.17 5.21h-5.25v-1.66l1.61-1.63h2l1.61 1.63z"/></svg>