<svg xmlns="http://www.w3.org/2000/svg" viewBox="0 0 512 512" enable-background="new 0 0 512 512"><style type="text/css">.st0{fill:#6DA8D6;} .st1{fill:#98D9D5;} .st2{fill:#F2EBD9;} .st3{fill:#FFCC75;} .st4{fill:#274B6D;}</style><path class="st0" d="M247.8 402h16.3v58.3h-16.3z"/><path class="st1" d="M256 512c-16.5 0-30-13.4-30-30 0-16.5 13.4-30 30-30 16.5 0 30 13.4 30 30s-13.5 30-30 30zm0-43.6c-7.5 0-13.6 6.1-13.6 13.6s6.1 13.6 13.6 13.6 13.6-6.1 13.6-13.6-6.1-13.6-13.6-13.6z"/><path class="st2" d="M30 95.3h452.1v306.7h-452.1z"/><circle class="st3" cx="421.4" cy="312.1" r="8.2"/><circle class="st3" cx="388.7" cy="344.8" r="8.2"/><path class="st4" d="M495.7 410.1h-479.4c-4.5 0-8.2-3.7-8.2-8.2 0-4.5 3.7-8.2 8.2-8.2h479.3c4.5 0 8.2 3.7 8.2 8.2 0 4.6-3.6 8.2-8.1 8.2zM38.1 0c-4.5 0-8.1 3.7-8.1 8.2v43.6h16.3v-43.6c0-4.5-3.7-8.2-8.2-8.2zM473.9 0c-4.5 0-8.2 3.7-8.2 8.2v43.6h16.3v-43.6c0-4.5-3.6-8.2-8.1-8.2z"/><path class="st1" d="M8.2 40.9h495.7v54.5h-495.7z"/></svg>